<?xml version="1.0" encoding="UTF-8"?>
<svg id="_图层_1" data-name="图层 1" xmlns="http://www.w3.org/2000/svg" viewBox="0 0 256.14 199.92">
  <defs>
    <style>
      .cls-1 {
        fill: #fef437;
        stroke-width: 0px;
      }
    </style>
  </defs>
  <path class="cls-1" d="M82.2,11.39c.53-.13.93-.53,1.07-.93.27-.8-.13-1.6-.93-1.87-1.73-.53-3.47-1.47-4.94-2.53-1.07-1.33-1.87-2.8-2.4-4.4-.13-.27-.4-.67-.8-.8-.8-.4-1.73,0-2.13.8-.53,1.73-1.47,3.2-2.53,4.54-1.47,1.07-3.07,1.87-4.8,2.4-.4.13-.8.53-.93.93-.27.8.13,1.6.93,1.87,1.73.4,3.33,1.2,4.67,2.27,1.07,1.33,2,2.93,2.53,4.54.13.27.4.67.8.8.8.4,1.73,0,2.13-.8.4-1.6,1.2-3.07,2.27-4.27,1.47-1.07,3.2-2,5.07-2.53h0ZM232.26,117.43c-.53.27-.93.67-1.07,1.07-.27,1.07.13,2.13,1.2,2.53,2.13.67,4.14,1.73,5.87,3.07,1.33,1.73,2.53,3.73,3.2,5.87.13.4.53.8,1.07,1.07,1.07.53,2.4,0,2.8-1.07.67-2,1.6-3.87,2.93-5.47,2-1.47,4.14-2.53,6.54-3.33.53-.13,1.07-.67,1.2-1.2.4-1.07-.13-2.13-1.2-2.53-2.4-.67-4.54-1.73-6.4-3.2-1.33-1.73-2.4-3.6-3.07-5.74-.13-.4-.53-.8-1.07-1.07-1.07-.53-2.4,0-2.8,1.07-.8,2.13-1.87,4.14-3.2,5.87-1.73,1.33-3.87,2.4-6,3.07h0ZM208.92,57.14c0-.8-.53-1.33-1.33-1.33-1.6-.4-3.07-1.2-4.4-2.13-.93-1.2-1.6-2.4-2.13-3.87-.13-.27-.4-.53-.67-.67-.8-.4-1.6-.13-2,.67-.53,1.47-1.33,2.8-2.27,4-1.33.93-2.8,1.73-4.27,2.13-.4.13-.67.4-.8.8-.27.8.13,1.47.8,1.73,1.47.4,2.93,1.07,4.14,2,.93,1.2,1.73,2.53,2.27,4,.13.27.4.53.67.67.8.4,1.6.13,2-.67.4-1.33,1.07-2.67,2-3.73,1.33-.93,2.93-1.73,4.54-2.27.67,0,1.33-.53,1.47-1.33ZM67.39,190.53c-.4.13-.67.4-.67.8-.4.67,0,1.47.67,1.73,1.47.4,2.93,1.07,4.14,2,.93,1.2,1.73,2.53,2.27,4,.13.27.4.53.67.67.8.4,1.6.13,2-.67.53-1.33,1.2-2.67,2.13-3.73,1.33-.93,2.93-1.73,4.54-2.27.53-.13.8-.53.93-.93.13-.8-.27-1.47-.93-1.73-1.6-.4-3.07-1.2-4.4-2.13-.93-1.07-1.6-2.4-2.13-3.87-.13-.27-.4-.53-.67-.67-.8-.4-1.6-.13-2,.67-.53,1.47-1.33,2.8-2.27,4-1.33.93-2.8,1.73-4.27,2.13h0ZM85,98.09c1.2,0,2.13-.93,2.13-2.13s-.93-2.13-2.13-2.13-2.13.93-2.13,2.13.93,2.27,2.13,2.13ZM47.12,164.79c0,2.4,2,4.4,4.4,4.4s4.4-2,4.4-4.4-2-4.4-4.4-4.4-4.4,2-4.4,4.4ZM241.06,69.55c0-1.87-1.47-3.33-3.33-3.33s-3.33,1.47-3.33,3.33,1.47,3.33,3.33,3.33,3.33-1.47,3.33-3.33ZM165.3,194.66c0,1.47,1.33,2.67,2.8,2.67s2.67-1.33,2.67-2.8-1.33-2.67-2.8-2.67c-1.6,0-2.67,1.2-2.67,2.8ZM162.76,8.59c.13-.67-.27-1.33-.93-1.6-1.6-.4-3.07-1.2-4.4-2.13-.93-1.2-1.73-2.53-2.13-4-.13-.27-.4-.53-.67-.67-.8-.4-1.6-.13-2,.67-.53,1.47-1.33,2.8-2.27,4-1.33.93-2.8,1.73-4.27,2.13-.4.13-.67.4-.8.8-.27.8.13,1.47.8,1.73,1.6.4,2.93,1.07,4.27,2,.93,1.2,1.73,2.53,2.27,4,.13.27.4.53.67.67.8.4,1.6.13,2-.67.53-1.33,1.2-2.67,2.13-3.73,1.33-.93,2.8-1.73,4.4-2.27.4-.13.8-.4.93-.93ZM112.48,175.06c0,1.87,1.33,3.33,3.2,3.33,1.87.13,3.33-1.33,3.33-3.2.13-1.87-1.33-3.33-3.2-3.33s-3.33,1.47-3.33,3.2ZM174.1,25.53c0-1.87-1.47-3.33-3.33-3.33s-3.33,1.47-3.33,3.33,1.47,3.33,3.33,3.33,3.33-1.47,3.33-3.33ZM194.24,188.13c-.27.13-.53.4-.53.93-.4.67,0,1.47.67,1.73,1.47.4,2.93,1.07,4.14,2,.93,1.2,1.73,2.53,2.27,4,.13.27.4.53.67.67.8.4,1.6.13,2-.67.4-1.33,1.07-2.67,2-3.73,1.47-1.07,2.93-1.73,4.54-2.27.53-.13.8-.53.93-.93.13-.8-.27-1.47-.93-1.73-1.6-.53-3.07-1.33-4.4-2.27-.93-1.07-1.6-2.4-2.13-3.87-.13-.27-.4-.53-.67-.67-.8-.4-1.6-.13-2,.67-.53,1.47-1.33,2.8-2.27,4-1.33.93-2.8,1.73-4.27,2.13h0ZM155.96,101.83c0,1.87,1.47,3.33,3.33,3.33s3.33-1.47,3.33-3.33-1.47-3.33-3.33-3.33-3.33,1.47-3.33,3.33Z"/>
  <path class="cls-1" d="M125.42,123.7c0,27.21,22.14,49.35,49.35,49.35,27.21,0,49.35-22.14,49.35-49.35,0-27.21-22.14-49.35-49.35-49.35-27.21,0-49.35,22.14-49.35,49.35ZM136.09,123.7c0-21.34,17.34-38.68,38.68-38.68,21.34,0,38.68,17.34,38.68,38.68,0,21.34-17.34,38.68-38.68,38.68-21.34,0-38.68-17.34-38.68-38.68ZM2.7,30.33l105.24,60.83c2.53,1.47,5.87.53,7.34-2s.53-5.87-2-7.34L8.17,21.13h-.13c-2.67-1.47-5.87-.53-7.34,2s-.53,5.74,2,7.2ZM45.92,86.09c-2.53-1.47-5.87-.53-7.34,2s-.53,5.87,2,7.34l60.02,34.68c2.53,1.47,5.87.53,7.34-2s.53-5.87-2-7.34l-60.02-34.68h0ZM135.95,68.88c2.53,1.47,5.87.53,7.34-2s.53-5.87-2-7.34l-60.02-34.68c-2.53-1.47-5.87-.53-7.34,2s-.53,5.87,2,7.34l60.02,34.68h0Z"/>
</svg>