<?xml version="1.0" encoding="UTF-8"?>
<svg id="_图层_1" data-name="图层 1" xmlns="http://www.w3.org/2000/svg" viewBox="0 0 151.88 174.99">
  <defs>
    <style>
      .cls-1, .cls-2 {
        stroke-width: 0px;
      }

      .cls-2 {
        fill: #fff;
      }
    </style>
  </defs>
  <path class="cls-1" d="M116.19,95.12c.79-11.77.64-23.41.7-35.28.05-13.34,2.66-26.64,2.73-39.87.09-15.62-17.6-13.53-29.58-14.98-11.57-1.4-42.56-11.74-50.37,2.22-4.14,7.4-1.33,19.67-1.28,27.52.1,15.62-.36,31.31.27,46.93.06,1.5.89,2.44,1.92,2.88-.48.35-1.38.37-2.75.03-.72.46-7.13,1.36-7.62,1.48-8.92,2.22-17.84,3.57-26.94,5.16-2.17.39-3.87,3.34-3.07,5.4,8.4,21.47,29.87,40.02,46.85,54.69,5.9,5.1,12.56,9.26,17.58,15.29,1.94,2.33,3.52,5.86,6.33,7.36,7.72,4.12,14.41-5.23,19.71-9.23,10.55-7.94,20.2-16.62,30.29-25.13,8.84-7.46,24.6-16.81,29.57-27.53,7.91-17.02-21.04-17.11-34.34-16.96h0ZM10.41,99.08c4.87-.68,9.63-1.54,14.4-2.47-3.56,3.32-6.09,7.58-9.69,10.85-1.84-2.64-3.42-5.44-4.71-8.39ZM139.2,110.14c-1.93,6.48-16.08,14.98-21.21,19.27-6.4,5.35-12.5,11.03-18.84,16.45,2.21-3.22,4.45-6.42,6.76-9.57.6-.82-.76-1.6-1.37-.79-3.65,4.93-7.18,9.94-10.59,15.04-.03.06-.06.12-.07.18-4.96,4.72-11.05,10.48-15.97,12.03-5.29,1.66-5.66-2.16-10.72-6.71-4.49-4.04-9.29-7.68-13.99-11.46,1.75-2.22,3.89-4.19,5.66-6.36,3.02-3.68,5.79-7.5,9.26-10.79.74-.7-.37-1.8-1.12-1.12-4.13,3.8-7.25,8.46-11.07,12.56-1.4,1.5-2.9,2.94-4.2,4.52-2.01-1.65-4-3.32-5.92-5.09-1.32-1.22-2.72-2.47-4.16-3.75,4.66-7.26,10.25-13.96,17.33-18.98.89-.63.05-2.12-.87-1.48-7.3,5.02-13.14,11.73-18.04,19.06-6.07-5.38-12.8-11.29-18.55-17.71,4.93-5.11,9.95-10.13,14.94-15.17.64-.65-.35-1.64-1-1-5.02,4.97-10.01,9.96-15.1,14.87-1.53-1.77-3.01-3.56-4.35-5.41,3.69-3.5,6.11-8.07,9.77-11.6.19-.17.21-.46.04-.65,0,0-.02-.02-.02-.02,3.97-.78,7.96-1.61,12.04-2.42,4.51-.9,7.34-.11,9.69-4.62,1.63-3.12,1.48-8.57.73-14.4,4.86-5.88,9.89-11.52,15.29-16.93.62-.62-.34-1.58-.96-.96-5.04,4.99-10.08,10.05-14.67,15.47-.38-2.46-.82-4.95-1.27-7.31,2.39-2.7,5.36-4.86,7.88-7.48,3.65-3.81,6.61-8.19,10.46-11.82.56-.53-.28-1.37-.85-.85-4.21,3.87-7.38,8.68-11.52,12.59-2.09,1.96-4.32,3.69-6.33,5.65-.16-.86-.32-1.7-.47-2.5.01-1.17,0-2.34,0-3.52,2.66-5.8,7.03-10.05,11.6-14.44.49-.47-.26-1.22-.75-.75-4.13,3.94-8,7.83-10.84,12.7.02-4.53.05-9.05.04-13.57,3.32-6.59,11.37-11.66,16.18-16.33.63-.61-.33-1.57-.96-.96-4.35,4.18-11.21,8.69-15.23,14.29,0-1.61,0-3.23-.02-4.84,2.3-3.42,3.37-7.5,5.81-10.89,2.3-3.18,5.86-5.93,6.07-10.12.05-.88-1.3-.87-1.37,0-.29,4.3-4.82,7.18-6.95,10.61-1.43,2.29-2.36,4.8-3.59,7.16-.01-2.38-.02-4.77-.04-7.15-.04-6.05-1.21-7.65,3.73-11.55,4.58-3.61,9.28-3.15,14.96-2.73,8.56.65,17.04,2.97,25.57,4.07,10.27,1.33,20.74-1.44,20.99,11.7.13,6.9-1.63,14.12-2.05,21.06-1.09,18.09.22,36.07-2.06,54.05-.32,2.5,2.32,4.37,4.49,4.49,5.22.28,10.24-.85,15.4-.62l8.29,1.53c6.24.96,7.61,2.66,4.11,5.11h0Z"/>
  <path class="cls-2" d="M59.56,69.33l-3.01,4.52c-.4.61.57,1.17.98.57l3.01-4.52c.4-.6-.57-1.17-.98-.57ZM45.97,100.72c-3.46,3.44-6.96,6.84-10.44,10.26-2.06,2.03-4.7,3.73-4.92,6.84-.07.92,1.46,1.14,1.62.22.55-3.11,4.44-5.95,6.57-8.1,2.72-2.73,5.49-5.43,8.22-8.17.68-.68-.37-1.72-1.05-1.05ZM46.06,111.36c-3.65,3.89-7.11,7.95-10.69,11.9-.71.78.48,1.97,1.17,1.17,3.48-4.05,6.84-8.2,10.39-12.2.51-.59-.33-1.45-.87-.87ZM58.05,124.86c-3.65,3.88-7.25,7.83-10.66,11.93-.71.86.55,2.08,1.21,1.21,3.28-4.24,6.78-8.24,10.43-12.16.61-.65-.37-1.64-.98-.98ZM76.16,129.41c-5.7,6.02-9.2,13.66-15.25,19.38-.88.83.42,2.1,1.31,1.31,6.25-5.54,9.46-13.53,14.86-19.78.53-.63-.35-1.53-.92-.92h0ZM86.44,129.44c-4.74,7.59-10.06,14.62-16.54,20.82-.91.87.48,2.27,1.38,1.38,6.48-6.4,11.84-13.61,16.6-21.35.56-.92-.88-1.75-1.45-.84ZM98.66,133.84c-5.4,6.63-10.97,13.11-16.7,19.45-.83.91.54,2.27,1.35,1.35,5.62-6.45,11.05-13.06,16.43-19.71.61-.76-.46-1.85-1.08-1.08h0Z"/>
</svg>